<?xml version="1.0" encoding="UTF-8" standalone="no"?>
<!-- Created with Inkscape (http://www.inkscape.org/) -->

<svg
   width="128"
   height="60"
   viewBox="0 0 33.866666 15.875"
   version="1.1"
   id="svg1"
   inkscape:version="1.3.2 (091e20ef0f, 2023-11-25)"
   sodipodi:docname="notPlaying.svg"
   xmlns:inkscape="http://www.inkscape.org/namespaces/inkscape"
   xmlns:sodipodi="http://sodipodi.sourceforge.net/DTD/sodipodi-0.dtd"
   xmlns="http://www.w3.org/2000/svg"
   xmlns:svg="http://www.w3.org/2000/svg">
  <sodipodi:namedview
     id="namedview1"
     pagecolor="#505050"
     bordercolor="#eeeeee"
     borderopacity="1"
     inkscape:showpageshadow="0"
     inkscape:pageopacity="0"
     inkscape:pagecheckerboard="0"
     inkscape:deskcolor="#d1d1d1"
     inkscape:document-units="px"
     inkscape:zoom="5.4876543"
     inkscape:cx="47.743532"
     inkscape:cy="22.778403"
     inkscape:window-width="1920"
     inkscape:window-height="1048"
     inkscape:window-x="0"
     inkscape:window-y="0"
     inkscape:window-maximized="1"
     inkscape:current-layer="layer1"
     showgrid="false" />
  <defs
     id="defs1" />
  <g
     inkscape:label="Calque 1"
     inkscape:groupmode="layer"
     id="layer1"
     transform="translate(0,-272.12915)">
    <path
       id="path9"
       style="color:#000000;fill:#1a1a1a;stroke-dasharray:0.5, 0.5;-inkscape-stroke:none;paint-order:fill markers stroke;opacity:0.5"
       d="M 7.9783243 278.06212 L 7.9726399 278.31224 L 7.9669555 278.06264 L 7.869287 278.06626 L 7.7674845 278.07452 L 7.6661987 278.08641 L 7.5685302 278.10398 L 7.4708617 278.12723 L 7.4119506 278.14274 L 7.5468261 278.62539 L 7.5938517 278.61144 L 7.6677489 278.59387 L 7.742163 278.58044 L 7.8181274 278.5701 L 7.8946085 278.56442 L 7.9669555 278.56235 L 7.9783243 278.56235 L 8.0077799 278.56442 L 8.0196654 278.06419 L 7.9783243 278.06212 z M 25.900228 278.06212 L 25.894543 278.33187 L 25.886792 278.06264 L 25.79119 278.06626 L 25.689388 278.07452 L 25.588102 278.08641 L 25.488366 278.10398 L 25.392765 278.12723 L 25.331787 278.14274 L 25.468729 278.62539 L 25.515755 278.61144 L 25.589652 278.59387 L 25.664066 278.58044 L 25.73848 278.5701 L 25.816512 278.56442 L 25.888859 278.56235 L 25.900228 278.56235 L 25.927616 278.56442 L 25.939502 278.06419 L 25.900228 278.06212 z M 8.5860391 278.15824 L 8.4258422 278.63263 L 8.491988 278.65433 L 8.5607177 278.68172 L 8.6289306 278.71066 L 8.6935261 278.74425 L 8.7560546 278.78146 L 8.8201334 278.82228 L 9.0898844 278.40008 L 9.0154703 278.35358 L 8.9317545 278.30448 L 8.8439045 278.25953 L 8.7560546 278.22077 L 8.6640706 278.18563 L 8.5860391 278.15824 z M 26.505875 278.15824 L 26.345678 278.63108 L 26.413891 278.65433 L 26.482621 278.68172 L 26.548767 278.71066 L 26.615429 278.74425 L 26.677958 278.78094 L 26.740486 278.82021 L 27.009721 278.40008 L 26.937374 278.35358 L 26.851591 278.30448 L 26.765808 278.25953 L 26.675891 278.22077 L 26.585974 278.18563 L 26.505875 278.15824 z M 6.8905354 278.3789 L 6.847644 278.40422 L 6.7696126 278.46106 L 6.6931314 278.51946 L 6.6213012 278.58405 L 6.5510213 278.6502 L 6.4843587 278.71893 L 6.4590372 278.74787 L 6.8357584 279.07601 L 6.8533284 279.05689 L 6.9044881 279.00418 L 6.957198 278.95509 L 7.011975 278.90651 L 7.0683023 278.86156 L 7.1266967 278.82073 L 7.1602864 278.79903 L 6.8905354 278.3789 z M 24.812439 278.3789 L 24.769547 278.40629 L 24.691516 278.46106 L 24.615035 278.52152 L 24.543205 278.58405 L 24.472408 278.6502 L 24.406262 278.71893 L 24.380941 278.74993 L 24.757662 279.07808 L 24.775232 279.05638 L 24.826391 279.00367 L 24.879101 278.95509 L 24.933362 278.906 L 24.990206 278.86156 L 25.0486 278.82021 L 25.08219 278.79903 L 24.812439 278.3789 z M 9.5136311 278.77939 L 9.1369099 279.10754 L 9.1384602 279.11167 L 9.1834187 279.168 L 9.2263101 279.22639 L 9.2655842 279.28737 L 9.3007242 279.35145 L 9.3358642 279.41604 L 9.3591186 279.47082 L 9.8143879 279.2636 L 9.7849324 279.19745 L 9.7399739 279.11167 L 9.691398 279.02744 L 9.6407551 278.94527 L 9.583911 278.86724 L 9.5234496 278.79128 L 9.5136311 278.77939 z M 27.433467 278.77939 L 27.056746 279.10754 L 27.060364 279.11167 L 27.105322 279.168 L 27.148213 279.22639 L 27.187488 279.28737 L 27.222627 279.35145 L 27.2557 279.41604 L 27.281022 279.46875 L 27.736291 279.2636 L 27.706836 279.19745 L 27.661877 279.11167 L 27.613301 279.02744 L 27.560591 278.94527 L 27.505814 278.86724 L 27.445353 278.79128 L 27.433467 278.77939 z M 6.1463948 279.22639 L 6.1190063 279.28685 L 6.0838663 279.37677 L 6.0528605 279.4703 L 6.0254719 279.56642 L 6.0017008 279.66202 L 5.9841308 279.76176 L 5.9825805 279.77519 L 6.4786743 279.83772 L 6.4921101 279.76331 L 6.5096801 279.69148 L 6.5293172 279.61913 L 6.5525716 279.5504 L 6.5799601 279.48219 L 6.6016642 279.43361 L 6.1463948 279.22639 z M 24.068298 279.22639 L 24.04091 279.28685 L 24.00577 279.37677 L 23.974764 279.4703 L 23.947375 279.56642 L 23.923604 279.66202 L 23.906034 279.76176 L 23.904484 279.77519 L 24.400578 279.83979 L 24.400578 279.83772 L 24.414013 279.76331 L 24.431583 279.69096 L 24.45122 279.61862 L 24.474475 279.5504 L 24.501863 279.48219 L 24.523567 279.4331 L 24.068298 279.22639 z M 27.888737 279.81447 L 27.392643 279.87906 L 27.39626 279.91214 L 27.402461 279.9881 L 27.404529 280.06665 L 27.402461 280.14468 L 27.39626 280.22065 L 27.386442 280.29506 L 27.386442 280.30074 L 27.878918 280.38859 L 27.882536 280.37102 L 27.894421 280.27181 L 27.902173 280.17 L 27.90424 280.06665 L 27.902173 279.9633 L 27.894421 279.86149 L 27.888737 279.81447 z M 9.9668334 279.81654 L 9.4707397 279.87906 L 9.4764241 279.91214 L 9.4826252 279.9881 L 9.4841755 280.06665 L 9.4826252 280.14468 L 9.4764241 280.22065 L 9.4666055 280.29506 L 9.4650552 280.30074 L 9.9570149 280.39066 L 9.961149 280.37102 L 9.9725178 280.27181 L 9.9802693 280.17 L 9.9844034 280.06665 L 9.9802693 279.96278 L 9.9725178 279.86149 L 9.9668334 279.81654 z M 6.4766072 280.27336 L 5.9805135 280.33795 L 5.9841308 280.37102 L 6.0017008 280.47076 L 6.0254719 280.56636 L 6.0528605 280.66196 L 6.0838663 280.75601 L 6.1190063 280.84748 L 6.1386433 280.88675 L 6.5939127 280.6816 L 6.5799601 280.65059 L 6.5525716 280.58393 L 6.5293172 280.51365 L 6.5096801 280.4413 L 6.4921101 280.36896 L 6.4786743 280.29506 L 6.4766072 280.27336 z M 24.398511 280.27336 L 23.902417 280.33795 L 23.906034 280.37102 L 23.923604 280.47076 L 23.947375 280.56636 L 23.974764 280.66196 L 24.00577 280.75601 L 24.04091 280.84541 L 24.060547 280.88882 L 24.515816 280.6816 L 24.501863 280.65059 L 24.474475 280.58186 L 24.45122 280.51365 L 24.431583 280.4413 L 24.414013 280.36896 L 24.400578 280.29506 L 24.398511 280.27336 z M 27.2557 280.71674 L 27.222627 280.7834 L 27.187488 280.84593 L 27.146663 280.90639 L 27.105322 280.96479 L 27.060364 281.02163 L 27.017472 281.07021 L 27.39626 281.39835 L 27.445353 281.34151 L 27.505814 281.26554 L 27.560591 281.18751 L 27.613301 281.10535 L 27.661877 281.02163 L 27.706836 280.93533 L 27.71097 280.92396 L 27.2557 280.71674 z M 9.3337971 280.71881 L 9.3007242 280.7834 L 9.2655842 280.84593 L 9.2263101 280.90639 L 9.1834187 280.96479 L 9.1384602 281.02163 L 9.0955688 281.07021 L 9.4728067 281.40042 L 9.5234496 281.34151 L 9.583911 281.26554 L 9.6407551 281.18751 L 9.691398 281.10535 L 9.7404906 281.02163 L 9.7849324 280.93533 L 9.7890665 280.92551 L 9.3337971 280.71881 z M 6.8223225 281.04127 L 6.4450846 281.3689 L 6.4843587 281.41385 L 6.5510213 281.48413 L 6.6213012 281.54873 L 6.6931314 281.61333 L 6.7696126 281.67172 L 6.847644 281.72856 L 6.8729654 281.74407 L 7.1427164 281.32239 L 7.1266967 281.31205 L 7.0683023 281.27123 L 7.011975 281.22627 L 6.957198 281.17924 L 6.9044881 281.1286 L 6.8533284 281.07589 L 6.8223225 281.04127 z M 24.744226 281.04127 L 24.366988 281.3689 L 24.406262 281.41385 L 24.472408 281.48258 L 24.543205 281.54873 L 24.615035 281.61333 L 24.691516 281.67172 L 24.769547 281.72856 L 24.796936 281.74407 L 25.06462 281.32239 L 25.0486 281.31205 L 24.990206 281.27123 L 24.933362 281.22627 L 24.879101 281.17769 L 24.826391 281.1286 L 24.775232 281.07589 L 24.744226 281.04127 z M 8.7674234 281.34357 L 8.7560546 281.35184 L 8.6935261 281.38905 L 8.6289306 281.42212 L 8.5607177 281.45158 L 8.491988 281.47897 L 8.4217081 281.50222 L 8.3788166 281.51411 L 8.5136921 281.99625 L 8.5705362 281.98074 L 8.6640706 281.94767 L 8.7560546 281.91202 L 8.8439045 281.87326 L 8.9317545 281.8283 L 9.0154703 281.77972 L 9.0371744 281.76577 L 8.7674234 281.34357 z M 26.691394 281.34357 L 26.677958 281.35184 L 26.615429 281.38905 L 26.548767 281.42212 L 26.482621 281.45158 L 26.413891 281.47897 L 26.343611 281.50222 L 26.30072 281.51411 L 26.437663 281.99625 L 26.49244 281.98074 L 26.585974 281.94767 L 26.675891 281.91202 L 26.765808 281.87326 L 26.851591 281.8283 L 26.937374 281.77972 L 26.959078 281.76577 L 26.691394 281.34357 z M 7.5271891 281.50377 L 7.3907633 281.98436 L 7.4708617 282.00607 L 7.5685302 282.02932 L 7.6661987 282.04689 L 7.7674845 282.05878 L 7.869287 282.06653 L 7.9452514 282.06859 L 7.959204 281.56837 L 7.8946085 281.56837 L 7.8181274 281.56268 L 7.742163 281.55235 L 7.6677489 281.53891 L 7.5938517 281.52134 L 7.5271891 281.50377 z M 25.449092 281.50377 L 25.314217 281.98436 L 25.392765 282.00607 L 25.490434 282.02932 L 25.588102 282.04689 L 25.689388 282.05878 L 25.79119 282.06653 L 25.869222 282.06859 L 25.881107 281.56837 L 25.816512 281.56837 L 25.73848 281.56268 L 25.664066 281.55235 L 25.589652 281.53891 L 25.515755 281.52134 L 25.449092 281.50377 z " />
  </g>
</svg>
