<?xml version="1.0" encoding="UTF-8" standalone="no"?>
<!-- Created with Inkscape (http://www.inkscape.org/) -->

<svg
   width="128"
   height="60"
   viewBox="0 0 33.866666 15.875"
   version="1.1"
   id="svg1"
   inkscape:version="1.3.2 (091e20ef0f, 2023-11-25)"
   sodipodi:docname="playing.svg"
   xmlns:inkscape="http://www.inkscape.org/namespaces/inkscape"
   xmlns:sodipodi="http://sodipodi.sourceforge.net/DTD/sodipodi-0.dtd"
   xmlns="http://www.w3.org/2000/svg"
   xmlns:svg="http://www.w3.org/2000/svg">
  <sodipodi:namedview
     id="namedview1"
     pagecolor="#505050"
     bordercolor="#eeeeee"
     borderopacity="1"
     inkscape:showpageshadow="0"
     inkscape:pageopacity="0"
     inkscape:pagecheckerboard="0"
     inkscape:deskcolor="#d1d1d1"
     inkscape:document-units="px"
     inkscape:zoom="5.4876543"
     inkscape:cx="63.597301"
     inkscape:cy="22.049494"
     inkscape:window-width="1920"
     inkscape:window-height="1048"
     inkscape:window-x="0"
     inkscape:window-y="0"
     inkscape:window-maximized="1"
     inkscape:current-layer="layer1"
     showgrid="false" />
  <defs
     id="defs1" />
  <g
     inkscape:label="Calque 1"
     inkscape:groupmode="layer"
     id="layer1"
     transform="translate(0,-272.12915)">
    <path
       id="path1"
       style="fill:#000000;stroke-width:2.32568;paint-order:fill markers stroke"
       d="m 13.447826,274.3198 c -3.187985,-3.03725 -8.223657,-2.92649 -11.2474737,0.24742 -3.02387956,3.17385 -2.89085737,8.20899 0.2971009,11.24628 3.1879861,3.03725 8.2236578,2.92649 11.2474748,-0.24742 3.023879,-3.17386 2.890857,-8.20899 -0.297102,-11.24628 z m -0.806306,0.84632 c 2.71854,2.58997 2.831976,6.88365 0.253353,9.59008 -2.578556,2.70622 -6.8724222,2.80051 -9.5907618,0.21061 -2.71839504,-2.58983 -2.8319849,-6.88323 -0.2537046,-9.58971 2.5784888,-2.70656 6.8726291,-2.80102 9.5911134,-0.21098 z m -0.306914,0.32214 c -0.80734,-0.76911 -1.802029,-1.31307 -2.884074,-1.5772 l -0.8828959,3.67689 c 0.4365845,0.10485 0.8384178,0.32252 1.1651892,0.63118 0.3255367,0.31036 0.5640267,0.70054 0.6915257,1.13134 l 3.62478,-1.05819 c -0.316126,-1.06782 -0.907442,-2.0349 -1.714525,-2.80402 z m -3.1525069,3.30892 c -0.7041797,-0.67103 -1.8166393,-0.64655 -2.4845407,0.0547 -0.6677359,0.7011 -0.6381988,1.81316 0.065974,2.48391 0.7040349,0.67089 1.8162207,0.64658 2.4841889,-0.0543 0.6680787,-0.70105 0.6386954,-1.81339 -0.065622,-2.48428 z m -5.8080583,-3.11175 c -1.5582581,1.63559 -2.121764,3.98192 -1.4782662,6.15523 l 3.6302099,-1.06014 c -0.260372,-0.87542 -0.035206,-1.82115 0.5909031,-2.4819 z m 6.4543515,6.14925 c -0.629851,0.65733 -1.5637278,0.92788 -2.4507711,0.70994 l -0.8832472,3.67726 c 2.2019606,0.53781 4.518442,-0.13843 6.076865,-1.77401 z"
       sodipodi:nodetypes="cccccccccccccccccccccccccccccccc" />
    <path
       id="path2"
       style="fill:#000000;stroke-width:2.32568;paint-order:fill markers stroke"
       d="m 12.110888,288.00415 c 0.543757,-0.33702 1.051148,-0.7288 1.514637,-1.16892 h 6.6151 c 0.463489,0.44012 0.971397,0.8319 1.515153,1.16892 z"
       sodipodi:nodetypes="ccccc" />
    <path
       id="path3"
       style="fill:#000000;stroke-width:2.32568;paint-order:fill markers stroke"
       d="m 20.572814,274.17695 c -3.267207,2.95187 -3.533409,7.98172 -0.594566,11.23447 2.938779,3.25281 7.969756,3.49678 11.23699,0.54493 3.267207,-2.95187 3.533409,-7.98172 0.594566,-11.23447 -2.938779,-3.25281 -7.969756,-3.49678 -11.23699,-0.54493 z m 0.783631,0.86735 c 2.786063,-2.5172 7.076201,-2.30916 9.582173,0.46468 2.505766,2.77375 2.278615,7.06264 -0.507353,9.57965 -2.785915,2.51706 -7.075783,2.30919 -9.581831,-0.46431 -2.50611,-2.77371 -2.279106,-7.06289 0.507011,-9.58002 z m 0.298283,0.33015 c -0.827151,0.7475 -1.443848,1.69858 -1.788117,2.75767 l 3.600546,1.15545 c 0.137157,-0.42735 0.384138,-0.81165 0.716184,-1.11437 0.333836,-0.30141 0.740765,-0.51004 1.179899,-0.60496 l -0.783715,-3.69413 c -1.088655,0.23541 -2.097389,0.75286 -2.924797,1.50034 z m 3.063852,3.39117 c -0.721485,0.65209 -0.78011,1.763 -0.130949,2.48133 0.649056,0.71816 1.759922,0.77203 2.4815,0.12035 0.721673,-0.65188 0.780625,-1.76277 0.131673,-2.48129 -0.649113,-0.71865 -1.760536,-0.77255 -2.482224,-0.12039 z m -3.537467,5.55904 c 1.514601,1.67624 3.812378,2.41354 6.027798,1.93418 l -0.78564,-3.69934 c -0.892499,0.19439 -1.818913,-0.10075 -2.431128,-0.77454 z m 6.614796,-5.97632 c 0.60838,0.67711 0.808471,1.62844 0.525027,2.49666 l 3.600889,1.15583 c 0.700777,-2.15553 0.19955,-4.51595 -1.314886,-6.19219 z"
       sodipodi:nodetypes="cccccccccccccccccccccccccccccccc" />
    <path
       id="path4"
       style="fill:#000000;stroke-width:2.32568;paint-order:fill markers stroke"
       d="m 12.110888,272.12915 c 0.543757,0.33702 1.051148,0.7288 1.514637,1.16892 h 6.6151 c 0.463489,-0.44012 0.971397,-0.8319 1.515153,-1.16892 z"
       sodipodi:nodetypes="ccccc" />
  </g>
</svg>
